PathFileType	4	(X/Y/Z)	C:/Users/opensim2020/Desktop/walking_exp_matlab/subject03_walking09_straight_02.trc																																																																																																																																											
DataRate	CameraRate	NumFrames	NumMarkers	Units	OrigDataRate	OrigDataStartFrame	OrigNumFrames																																																																																																																																							
100	100	4	47	mm	100	1881	364																																																																																																																																							
Frame#	Time	LFHD			RFHD			LBHD			RBHD			C7			T10			CLAV			STRN			RBAK			LSHO			LUPA			LELB			LFRM			LWRA			LWRB			LFIN			RSHO			RUPA			RELB			RFRM			RWRA			RWRB			RFIN			LASI			RASI			LPSI			RPSI			LTHI			LKNE			LTIB			LANK			LHEE			LTOE			RTHI			RKNE			RTIB			RANK			RHEE			RTOE			*39			*40			*41			*42			*43			*44			*45			*46		
		X1	Y1	Z1	X2	Y2	Z2	X3	Y3	Z3	X4	Y4	Z4	X5	Y5	Z5	X6	Y6	Z6	X7	Y7	Z7	X8	Y8	Z8	X9	Y9	Z9	X10	Y10	Z10	X11	Y11	Z11	X12	Y12	Z12	X13	Y13	Z13	X14	Y14	Z14	X15	Y15	Z15	X16	Y16	Z16	X17	Y17	Z17	X18	Y18	Z18	X19	Y19	Z19	X20	Y20	Z20	X21	Y21	Z21	X22	Y22	Z22	X23	Y23	Z23	X24	Y24	Z24	X25	Y25	Z25	X26	Y26	Z26	X27	Y27	Z27	X28	Y28	Z28	X29	Y29	Z29	X30	Y30	Z30	X31	Y31	Z31	X32	Y32	Z32	X33	Y33	Z33	X34	Y34	Z34	X35	Y35	Z35	X36	Y36	Z36	X37	Y37	Z37	X38	Y38	Z38	X39	Y39	Z39	X40	Y40	Z40	X41	Y41	Z41	X42	Y42	Z42	X43	Y43	Z43	X44	Y44	Z44	X45	Y45	Z45	X46	Y46	Z46	X47	Y47	Z47
																																																																																																																																														
46	0.45	-1206.27173	1618.00403	-1489.51392	-1220.81055	1616.97937	-1357.2771	-1330.03101	1564.02063	-1500.30225	-1339.43164	1563.10022	-1369.57849	-1359.46912	1414.30176	-1440.34094	-1416.73315	1105.5094	-1442.01367	-1240.1748	1331.01147	-1441.69751	-1210.44067	1163.00867	-1445.82751	-1421.15833	1247.52869	-1339.15173	-1285.30688	1372.20959	-1597.31287	-1329.53577	1179.9928	-1669.98401	-1343.10974	1057.33899	-1684.18213	-1321.21106	929.45984	-1681.54138	-1300.89197	813.78156	-1647.84509	-1328.08801	816.01624	-1696.21899	-1310.61206	734.10687	-1684.40771	-1277.14539	1357.72742	-1281.48975	-1249.32495	1138.6925	-1206.97644	-1211.12756	1033.23352	-1196.32983	-1156.40344	908.5976	-1204.33716	-1103.52905	829.30823	-1249.30591	-1127.52637	812.29535	-1204.13428	-1083.52454	754.7912	-1219.82629	-1247.47327	935.81952	-1554.68323	-1257.05957	931.49017	-1316.99817	-1413.69836	953.88263	-1513.51196	-1415.66406	964.87177	-1363.04285	-1235.91138	638.18628	-1610.62219	-1170.9613	474.69919	-1563.99426	-1156.83679	285.31888	-1572.49548	-1098.45007	80.62218	-1543.62024	-1128.22339	36.77036	-1505.89124	-945.52277	76.95937	-1511.39722	-1340.86621	639.0863	-1289.87927	-1353.47327	460.13229	-1329.51282	-1435.48169	284.87268	-1331.2832	-1510.16003	81.88819	-1384.81506	-1558.4519	55.64631	-1435.104	-1373.5741	36.87455	-1398.89478	-1298.24634	1670.09668	-1446.14185	NaN	NaN	NaN	NaN	NaN	NaN	NaN	NaN	NaN	NaN	NaN	NaN	NaN	NaN	NaN	NaN	NaN	NaN	NaN	NaN	NaN
47	0.46	-1198.97827	1617.25659	-1490.78687	-1213.64929	1616.41455	-1358.60144	-1322.62573	1563.02502	-1501.61292	-1332.05859	1562.26721	-1370.8313	-1352.03784	1413.56628	-1441.70886	-1409.44946	1104.8335	-1443.41736	-1232.7074	1330.29932	-1442.60291	-1203.04163	1162.24951	-1446.34412	-1414.26465	1246.93213	-1340.69177	-1277.27441	1371.25305	-1598.37659	-1321.37512	1178.83301	-1670.77637	-1335.29968	1056.15808	-1684.69385	-1314.46533	928.05707	-1681.81702	-1295.40332	812.17847	-1647.90735	-1322.34692	814.60687	-1696.48535	-1305.83691	732.50598	-1684.37219	-1270.36902	1357.06018	-1282.55774	-1242.93213	1137.82092	-1208.31238	-1205.03076	1032.21558	-1197.7937	-1150.53015	907.38324	-1205.92346	-1097.85645	828.18866	-1250.91162	-1121.96484	811.08331	-1205.7937	-1077.99109	753.5304	-1221.47144	-1239.54944	934.79724	-1555.07556	-1250.52576	930.8764	-1317.29236	-1405.98145	953.1012	-1514.89465	-1408.89417	964.284	-1364.46973	-1228.89526	636.78638	-1609.89526	-1164.54993	473.46155	-1563.18152	-1147.88489	284.93829	-1572.31384	-1086.74121	81.28107	-1544.18933	-1115.43005	36.5104	-1506.17822	-933.27039	79.58884	-1512.07825	-1336.1333	638.80444	-1289.90063	-1349.5835	459.8577	-1329.41565	-1433.19507	285.23358	-1331.21082	-1509.86096	83.19025	-1384.65454	-1558.17603	56.99822	-1434.92639	-1373.46252	36.84024	-1398.78699	-1291.08484	1669.28296	-1447.6145	NaN	NaN	NaN	NaN	NaN	NaN	NaN	NaN	NaN	NaN	NaN	NaN	NaN	NaN	NaN	NaN	NaN	NaN	NaN	NaN	NaN
48	0.47	-1191.58276	1616.53406	-1492.11755	-1206.51685	1615.87231	-1359.91162	-1315.17188	1562.14478	-1503.07129	-1324.85925	1561.6228	-1372.37964	-1344.59741	1412.87866	-1443.16284	-1402.05029	1104.14734	-1444.83606	-1225.19421	1329.54224	-1443.4939	-1195.45142	1161.46643	-1446.81812	-1407.37854	1246.4563	-1342.26978	-1269.21118	1370.35193	-1599.54456	-1313.05664	1177.71228	-1671.47827	-1327.2019	1054.99023	-1685.17261	-1307.55908	926.67212	-1682.1521	-1289.77478	810.64868	-1648.0874	-1316.401	813.28876	-1696.82874	-1300.90393	730.93042	-1684.43188	-1263.40906	1356.38293	-1283.55493	-1236.56763	1136.99451	-1209.70813	-1198.9209	1031.27673	-1199.38293	-1144.91187	906.20068	-1207.54712	-1092.36841	826.82764	-1252.45386	-1116.58801	809.8045	-1207.48035	-1072.70435	752.27435	-1223.22559	-1231.20886	933.89642	-1555.69629	-1243.89807	930.30847	-1317.73608	-1397.97534	952.3551	-1516.39929	-1401.9563	963.73633	-1365.96631	-1221.66931	635.55499	-1609.34888	-1157.93103	472.25381	-1562.56531	-1139.62854	284.40982	-1572.23145	-1076.60242	81.16626	-1544.25562	-1104.75745	36.07032	-1506.29211	-922.84723	80.93835	-1512.82214	-1331.20056	638.49194	-1290.29456	-1345.51709	459.51871	-1329.3396	-1430.79736	285.60132	-1331.17627	-1509.33521	83.99382	-1384.47852	-1557.89514	58.50794	-1434.85608	-1373.32507	36.78411	-1398.65271	-1283.87842	1668.57935	-1449.1875	NaN	NaN	NaN	NaN	NaN	NaN	NaN	NaN	NaN	NaN	NaN	NaN	NaN	NaN	NaN	NaN	NaN	NaN	NaN	NaN	NaN
49	0.48	-1184.1792	1615.87854	-1493.54248	-1199.23767	1615.36926	-1361.35254	-1307.66882	1561.32739	-1504.50671	-1317.50305	1560.94592	-1373.78784	-1337.00037	1412.2019	-1444.64441	-1394.51025	1103.53455	-1446.29773	-1217.53406	1328.91736	-1444.42297	-1187.81079	1160.80908	-1447.3551	-1400.33447	1245.88831	-1343.87549	-1261.03345	1369.47864	-1600.75745	-1304.68152	1176.69104	-1672.35779	-1318.79736	1053.70984	-1685.52283	-1300.3844	925.34937	-1682.47327	-1283.96216	809.10486	-1648.28357	-1310.23376	812.0459	-1697.29907	-1295.78479	729.47833	-1684.60864	-1256.51782	1355.82361	-1284.6958	-1229.98633	1136.12439	-1211.17163	-1192.91858	1030.33423	-1201.06458	-1139.42664	905.10321	-1209.16077	-1087.18567	825.49274	-1254.01001	-1111.52148	808.55811	-1209.05371	-1067.76978	750.89203	-1224.81494	-1223.13867	932.86444	-1555.88965	-1237.18115	929.67896	-1318.15063	-1389.82837	951.78748	-1517.81055	-1394.88464	963.22485	-1367.44189	-1214.24231	634.58008	-1608.93713	-1151.11365	471.16382	-1562.22986	-1132.21265	283.60507	-1572.19568	-1068.32507	80.35069	-1544.05933	-1096.34888	35.25063	-1506.23193	-914.59497	81.12933	-1513.37463	-1325.98694	638.11438	-1290.86926	-1341.2467	459.1391	-1329.30652	-1428.25134	285.98862	-1331.17236	-1508.80981	85.15275	-1384.37122	-1557.5271	60.04865	-1434.75867	-1373.1427	36.77316	-1398.57361	-1276.52917	1667.8623	-1450.70959	NaN	NaN	NaN	NaN	NaN	NaN	NaN	NaN	NaN	NaN	NaN	NaN	NaN	NaN	NaN	NaN	NaN	NaN	NaN	NaN	NaN
